<svg width="17" height="16" viewBox="0 0 17 16" fill="none" xmlns="http://www.w3.org/2000/svg">
<path d="M14.1568 2.34313C12.6458 0.832156 10.6369 0 8.5 0C6.36309 0 4.35413 0.832156 2.84313 2.34313C1.33216 3.85413 0.5 5.86312 0.5 8C0.5 10.1369 1.33216 12.1458 2.84313 13.6568C4.35413 15.1678 6.36312 16 8.5 16C10.6369 16 12.6458 15.1678 14.1568 13.6569C15.6678 12.1458 16.5 10.1369 16.5 8C16.5 5.86312 15.6678 3.85416 14.1568 2.34313ZM12.3221 6.09603L7.85128 10.5668C7.75975 10.6584 7.63978 10.7041 7.51984 10.7041C7.39987 10.7041 7.27991 10.6584 7.18837 10.5668L4.67794 8.05644C4.49487 7.87341 4.49487 7.57662 4.67794 7.39353C4.86097 7.21047 5.15778 7.21047 5.34084 7.39353L7.51984 9.5725L11.6592 5.43313C11.8422 5.25006 12.139 5.25006 12.3221 5.43313C12.5051 5.61619 12.5051 5.91297 12.3221 6.09603Z" fill="#5ACB58"/>
</svg>
